<svg width="902" height="1019" viewBox="0 0 902 1019" fill="none" xmlns="http://www.w3.org/2000/svg">
<path d="M446.865 1.00515C458.033 -0.545683 469.684 1.4888 479.586 6.90884C487.555 11.2196 494.378 17.6017 499.227 25.2612C505.515 35.1971 508.488 47.2515 507.28 58.9695C506.366 68.8528 502.568 78.4364 496.511 86.2905C490.643 93.9763 482.627 99.9799 473.629 103.497C461.159 108.375 446.85 108.328 434.426 103.329C421.877 98.3397 411.403 88.3723 405.803 76.076C399.668 62.8282 399.337 47.0675 404.957 33.5884C411.865 16.319 428.417 3.3866 446.865 1.00515ZM448.961 26.1707C437.331 28.2473 427.734 38.3934 426.379 50.1482C424.703 61.4824 430.917 73.3896 441.071 78.6362C448.168 82.4528 456.941 82.9575 464.437 80.003C471.313 77.3324 477.059 71.8598 479.975 65.073C482.706 58.938 483.09 51.8094 481.067 45.4063C479.045 38.8402 474.485 33.0995 468.576 29.6036C462.745 26.1287 455.622 24.8144 448.961 26.1707Z" fill="#FEF9EF"/>
<path d="M83.8658 224.488C187.249 165.062 290.632 105.631 394.047 46.2579C392.319 59.122 395.045 72.5064 401.454 83.7776C304.159 139.713 206.853 195.622 109.532 251.52C104.074 240.117 94.9338 230.571 83.8658 224.488Z" fill="#FEF9EF"/>
<path d="M514.56 46.5734C616.935 106.052 719.309 165.525 821.674 225.014C810.175 230.602 800.488 239.833 794.453 251.12C698.592 195.432 602.736 139.739 506.875 84.0457C513.41 72.8114 516.015 59.4637 514.56 46.5734Z" fill="#FEF9EF"/>
<path d="M118.929 315.12C230.633 250.91 342.358 186.721 454.072 122.527C565.482 187.252 676.892 251.983 788.296 316.718C787.971 445.632 787.656 574.545 787.372 703.459C675.658 767.653 563.943 831.842 452.229 896.041C340.814 831.321 229.409 766.591 118.01 701.845C118.336 572.937 118.661 444.028 118.929 315.12ZM153.273 336.527C152.947 451.367 152.732 566.208 152.422 681.048C251.676 738.702 350.91 796.383 450.164 854.042C549.697 796.856 649.23 739.659 748.763 682.473C748.983 567.627 749.346 452.781 749.545 337.936C650.296 280.281 551.058 222.627 451.819 164.957C352.302 222.143 252.785 279.33 153.273 336.527Z" fill="#FEF9EF"/>
<path d="M48.2036 224.988C57.5906 223.805 67.2875 225.177 75.9759 228.936C95.0336 236.905 108.46 256.919 108.035 277.663C108.576 297.367 96.6778 316.56 79.1434 325.361C63.642 333.425 44.1535 333.115 28.941 324.504C19.512 319.21 11.6956 311.03 6.97317 301.283C-0.580567 285.985 -0.134063 267.023 8.20762 252.124C16.2236 237.399 31.5412 226.943 48.2036 224.988ZM50.2942 250.116C41.4167 251.515 33.4323 257.502 29.5714 265.619C26.9764 270.782 26.2515 276.764 27.113 282.447C28.2266 289.376 32.077 295.805 37.6294 300.085C43.7123 304.853 51.8438 306.977 59.4606 305.62C67.5817 304.311 74.9883 299.202 79.0961 292.068C82.5263 286.343 83.6452 279.372 82.5001 272.822C81.1658 265.435 76.7428 258.664 70.4813 254.522C64.6453 250.526 57.2544 248.981 50.2942 250.116Z" fill="#FEF9EF"/>
<path d="M840.322 227.069C851.038 225.445 862.242 227.19 871.939 232.043C881.505 236.79 889.573 244.507 894.774 253.838C900.594 264.189 902.711 276.522 900.836 288.24C898.209 305.373 886.6 320.755 870.91 328.063C859.227 333.588 845.522 334.634 833.141 330.944C824.442 328.399 816.426 323.563 810.122 317.054C802.338 309.164 797.163 298.76 795.54 287.799C793.723 275.86 796.055 263.306 802.201 252.897C810.143 239.103 824.563 229.298 840.322 227.069ZM843.92 251.983C833.304 253.528 824.027 261.719 821.201 272.075C818.349 281.596 821.175 292.515 828.229 299.496C834.848 306.398 845.181 309.426 854.478 307.203C863.014 305.31 870.463 299.165 873.946 291.137C878.08 282.021 876.772 270.729 870.642 262.812C864.611 254.674 853.916 250.3 843.92 251.983Z" fill="#FEF9EF"/>
<path d="M847.986 340.517C860.961 340.596 873.867 336.248 884.263 328.494C884.084 357.276 884.158 386.069 884.089 414.857C883.785 462.659 883.963 510.472 883.669 558.275C883.632 602.024 883.511 645.773 883.375 689.523C873.048 681.674 860.151 677.368 847.193 677.295C847.187 654.484 847.418 631.679 847.387 608.869C847.366 564.005 847.718 519.146 847.665 474.283C847.807 429.692 847.965 385.107 847.986 340.517Z" fill="#FEF9EF"/>
<path d="M22.9421 329.572C33.6739 336.18 46.5174 339.45 59.0982 338.44C58.9668 377.243 58.8618 416.05 58.8513 454.863C58.6412 486.038 58.6727 517.217 58.5939 548.402C58.6096 575.034 58.3575 601.661 58.3785 628.294C58.4048 644.065 58.3102 659.831 58.3155 675.602C45.7084 674.545 32.8334 677.757 22.0439 684.334C22.2592 671.98 22.0912 659.615 22.1647 647.256C22.1805 618.516 22.2487 589.775 22.4116 561.04C22.3485 514.252 22.6742 467.475 22.69 420.692C22.6952 390.317 22.8844 359.942 22.9421 329.572Z" fill="#FEF9EF"/>
<path d="M253.011 335.833C254.896 333.514 258.526 332.931 261.042 334.545C262.818 335.612 264 337.62 263.979 339.707C263.989 350.006 263.979 360.304 263.979 370.603C269.1 372.101 273.965 376.165 274.663 381.711C274.816 385.176 275.204 389.066 272.94 391.994C269.531 396.557 263.459 398.092 258.012 397.866C253.525 398.097 248.42 396.941 245.777 392.982C243.445 389.697 243.839 385.486 243.949 381.68C244.265 376.969 247.133 372.39 251.577 370.577C251.556 360.625 251.587 350.673 251.561 340.722C251.477 338.987 251.808 337.152 253.011 335.833Z" fill="#FEF9EF"/>
<path d="M291.646 339.134C291.672 336.348 293.921 333.562 296.847 333.64C299.956 333.351 302.467 336.264 302.441 339.239C302.483 349.69 302.446 360.136 302.457 370.587C307.589 372.106 312.49 376.175 313.152 381.758C313.246 385.018 313.661 388.587 311.875 391.51C309.443 395.548 304.642 397.545 300.088 397.803C296.095 397.94 291.84 398.113 288.221 396.131C285.012 394.512 282.695 391.221 282.438 387.615C282.249 383.572 282.049 379.13 284.486 375.644C286.115 373.116 288.799 371.476 291.625 370.582C291.641 360.099 291.594 349.617 291.646 339.134Z" fill="#FEF9EF"/>
<path d="M330.108 339.702C330.14 336.269 333.596 333.756 336.811 333.64C340.194 333.509 343.95 336.085 344.018 339.686C344.028 349.985 344.018 360.278 344.023 370.571C348.677 372.464 351.587 377.39 351.698 382.321C351.698 385.57 352.092 389.124 350.206 391.989C347.664 396.163 342.537 397.913 337.851 397.856C333.827 397.987 329.362 397.829 326.147 395.069C323.61 393.03 322.365 389.718 322.418 386.516C322.423 382.61 322.097 378.389 324.199 374.898C325.475 372.706 327.739 371.328 330.103 370.577C330.103 360.283 330.098 349.995 330.108 339.702Z" fill="#FEF9EF"/>
<path d="M371.979 334.965C374.033 333.041 377.684 333.188 379.502 335.37C380.668 336.69 381.015 338.509 380.993 340.228C380.988 350.353 380.993 360.478 380.988 370.603C386.105 372.117 390.979 376.17 391.662 381.722C391.804 385.055 392.182 388.729 390.265 391.673C387.723 395.663 382.895 397.572 378.325 397.813C374.391 397.934 370.193 398.097 366.637 396.131C363.412 394.486 361.153 391.121 360.938 387.494C360.885 384.056 360.549 380.402 362.12 377.216C363.59 373.894 366.732 371.597 370.151 370.577C370.157 360.273 370.157 349.969 370.151 339.665C370.099 337.941 370.703 336.159 371.979 334.965Z" fill="#FEF9EF"/>
<path d="M408.634 339.712C408.634 336.343 411.975 333.867 415.117 333.651C418.757 333.372 422.796 336.322 422.56 340.217C422.549 350.337 422.56 360.457 422.549 370.582C426.5 373.205 429.799 377.39 430.198 382.247C430.277 385.586 430.586 389.244 428.596 392.146C425.722 396.562 420.096 398.097 415.085 397.866C410.016 398.129 404.275 396.794 401.207 392.404C398.838 389.166 399.321 384.939 399.489 381.175C399.92 376.128 403.812 371.87 408.64 370.577C408.629 360.289 408.634 350.001 408.634 339.712Z" fill="#FEF9EF"/>
<path d="M447.112 339.66C447.118 336.737 449.744 334.492 452.407 333.83C456.184 332.847 460.922 335.596 461.027 339.718C461.038 350.006 461.038 360.294 461.027 370.582C464.584 372.101 467.678 374.872 469.264 378.436C470.567 381.275 470.346 384.497 470.189 387.536C469.852 391.421 466.89 394.596 463.454 396.157C459.53 398.076 455.039 397.987 450.784 397.771C446.655 397.482 442.395 395.379 440.536 391.526C439.033 388.656 439.475 385.333 439.443 382.221C439.564 377.321 442.479 372.438 447.107 370.577C447.118 360.273 447.107 349.964 447.112 339.66Z" fill="#FEF9EF"/>
<path d="M487.114 339.691C487.056 336.39 490.087 333.504 493.365 333.64C496.595 333.546 499.584 336.432 499.505 339.691C499.516 349.985 499.505 360.278 499.51 370.571C504.264 372.601 508.351 377.017 508.724 382.347C508.813 385.459 509.06 388.829 507.406 391.615C505.105 395.595 500.435 397.577 496.001 397.803C492.025 397.945 487.817 398.082 484.177 396.205C480.81 394.612 478.204 391.3 477.947 387.52C477.874 383.882 477.543 379.987 479.376 376.68C480.936 373.657 483.888 371.57 487.098 370.592C487.113 360.294 487.072 349.99 487.114 339.691Z" fill="#FEF9EF"/>
<path d="M522.555 339.728C522.413 336.49 525.355 333.64 528.544 333.64C531.848 333.435 535.026 336.348 534.9 339.702C534.9 349.995 534.905 360.289 534.9 370.587C540.026 372.096 544.922 376.149 545.61 381.716C545.616 384.671 546.13 387.857 544.728 390.601C543.094 393.855 539.806 395.947 536.412 396.983C533.177 398.019 529.736 397.913 526.385 397.813C522.587 397.666 518.605 396.037 516.541 392.704C514.523 389.644 514.749 385.822 514.854 382.331C514.97 377.385 517.885 372.448 522.56 370.566C522.55 360.283 522.56 350.006 522.555 339.728Z" fill="#FEF9EF"/>
<path d="M562.577 339.218C562.577 336.332 564.936 333.457 567.967 333.641C570.992 333.441 573.404 336.301 573.372 339.202C573.388 349.659 573.383 360.115 573.372 370.577C578.499 372.096 583.395 376.128 584.093 381.695C584.114 384.949 584.645 388.503 582.864 391.431C580.479 395.511 575.673 397.514 571.124 397.798C567.158 397.94 562.94 398.113 559.315 396.215C555.859 394.544 553.416 390.927 553.358 387.063C553.369 383.767 553.017 380.292 554.53 377.243C556.006 373.931 559.121 371.607 562.546 370.598C562.567 360.136 562.504 349.675 562.577 339.218Z" fill="#FEF9EF"/>
<path d="M601.024 340.191C600.798 335.77 605.93 332.657 609.922 333.903C612.464 334.634 614.96 336.826 614.949 339.649C614.939 349.953 614.949 360.257 614.944 370.561C619.425 372.38 622.33 377.011 622.613 381.769C622.771 385.412 623.075 389.476 620.769 392.572C617.775 396.804 612.223 398.113 607.306 397.866C603.062 398.066 598.287 397.088 595.582 393.518C592.587 389.66 593.307 384.461 593.528 379.918C593.822 375.618 596.763 371.644 601.024 370.598C601.024 360.462 601.024 350.326 601.024 340.191Z" fill="#FEF9EF"/>
<path d="M641.093 339.197C641.077 336.237 643.593 333.351 646.687 333.64C649.624 333.567 651.877 336.364 651.893 339.16C651.94 349.632 651.898 360.105 651.909 370.577C656.059 371.865 659.983 374.604 661.774 378.678C662.998 381.275 662.651 384.208 662.667 386.989C662.557 390.659 660.119 393.918 656.973 395.637C652.46 398.239 647.008 398.108 642.002 397.598C637.085 396.978 632.436 393.177 631.948 388.056C631.706 384.135 631.443 379.887 633.503 376.359C635.078 373.457 637.983 371.544 641.077 370.577C641.088 360.115 641.051 349.653 641.093 339.197Z" fill="#FEF9EF"/>
<path d="M253.047 407.965C259.235 407.271 265.465 407.586 271.68 407.518C389.519 407.518 507.353 407.518 625.192 407.518C636.029 407.644 647.024 406.84 657.671 409.369C663.507 410.709 669.364 412.675 674.218 416.282C676.939 418.337 679.476 421.265 679.613 424.835C679.629 480.402 679.613 535.969 679.623 591.536C679.708 593.476 679.602 595.495 678.625 597.23C676.619 600.925 672.947 603.323 669.28 605.157C659.983 609.557 649.545 610.903 639.349 610.966C513.63 610.966 387.912 610.966 262.193 610.966C252.47 610.866 242.557 609.573 233.606 605.578C229.619 603.701 225.564 601.241 223.384 597.272C222.386 595.505 222.26 593.45 222.344 591.473C222.354 536.101 222.349 480.723 222.349 425.345C222.312 420.987 225.674 417.564 229.094 415.346C236.233 410.777 244.727 408.901 253.047 407.965ZM318.546 453.228C318.552 461.908 318.536 470.587 318.552 479.261C322.686 481.942 324.671 486.774 325.79 491.384C337.231 490.29 348.677 489.229 360.124 488.156C356.819 478.799 351.85 469.72 344.202 463.222C337.089 457.118 327.897 453.601 318.546 453.228ZM293.18 456.945C285.421 459.7 278.183 464.562 273.65 471.554C270.156 476.633 268.843 482.915 268.969 489.008C269.085 494.349 270.036 499.911 273.077 504.421C275.835 508.422 279.801 511.429 283.972 513.842C292.213 518.595 301.805 519.762 310.93 521.838C310.93 512.88 310.93 503.917 310.93 494.964C307.841 493.886 303.991 492.798 302.656 489.465C301.758 486.81 301.758 483.42 303.885 481.332C305.808 479.535 308.371 478.594 310.924 478.12C310.919 469.862 310.951 461.603 310.914 453.344C304.884 453.812 298.895 454.963 293.18 456.945ZM364.704 455.883C364.709 464.231 364.699 472.574 364.709 480.922C372.631 480.912 380.557 480.928 388.479 480.912C388.474 472.569 388.479 464.226 388.479 455.883C380.552 455.883 372.631 455.883 364.704 455.883ZM396.027 455.883C396.059 464.142 395.964 472.401 396.075 480.66C396.432 481.832 396.259 483.067 396.29 484.282C396.285 510.472 396.295 536.668 396.29 562.864C407.626 562.864 418.962 562.864 430.303 562.864C430.303 535.549 430.303 508.233 430.303 480.917C440.919 480.917 451.53 480.917 462.146 480.917C462.152 472.574 462.141 464.231 462.152 455.888C440.11 455.878 418.069 455.883 396.027 455.883ZM469.7 455.883C469.7 491.542 469.7 527.2 469.7 562.864C481.083 562.864 492.461 562.864 503.844 562.864C503.844 527.206 503.844 491.542 503.844 455.883C492.461 455.883 481.083 455.883 469.7 455.883ZM519.209 455.888C519.214 491.547 519.198 527.206 519.214 562.869C530.613 562.854 542.017 562.87 553.421 562.864C553.217 559.095 553.973 555.194 552.686 551.567C544.055 519.672 535.42 487.783 526.794 455.888C524.262 455.872 521.736 455.883 519.209 455.888ZM534.626 455.883C538.514 470.251 542.401 484.613 546.288 498.98C551.982 520.282 557.96 541.51 563.439 562.864C571.318 562.859 579.192 562.87 587.072 562.859C578.862 527.221 570.74 491.568 562.724 455.883C553.358 455.883 543.992 455.883 534.626 455.883ZM592.251 455.888C588.674 472.054 585.112 488.219 581.462 504.364C585.27 521.586 589.31 538.761 593.228 555.962C596.023 545.532 598.749 535.081 601.586 524.666C601.654 537.399 601.596 550.132 601.612 562.864C612.953 562.864 624.289 562.864 635.63 562.864C635.625 527.2 635.625 491.542 635.63 455.883C621.169 455.883 606.713 455.878 592.251 455.888ZM318.552 523.499C321.908 524.425 325.617 525.024 328.249 527.51C330.45 529.477 330.035 533.051 328.453 535.28C326.232 538.545 322.281 539.985 318.536 540.585C318.557 548.791 318.546 556.997 318.541 565.204C328.7 564.562 339.206 562.922 348.042 557.539C354.666 553.559 360.124 547.098 361.741 539.412C362.871 534.24 362.713 528.846 361.783 523.657C360.764 518.142 358.327 512.764 354.188 508.9C350.715 505.662 346.203 503.891 341.785 502.366C336.869 500.947 331.962 499.406 326.883 498.707C324.073 498.187 321.388 497.161 318.599 496.573C318.478 505.547 318.578 514.52 318.552 523.499ZM266.358 530.423C268.817 541.026 274.984 550.868 284.04 557.018C291.904 562.433 301.49 564.851 310.945 565.198C310.898 556.734 310.961 548.265 310.909 539.796C308.829 539.207 306.67 538.619 304.931 537.278C302.325 535.054 301.028 531.753 300.119 528.541C288.873 529.266 277.61 529.792 266.358 530.423ZM308.083 584.176C309.317 584.218 310.551 584.224 311.796 584.224C310.326 587.241 308.23 589.891 306.06 592.43C308.807 594.927 311.55 597.44 314.265 599.984C318.142 595.116 321.914 589.786 323.232 583.593C322.234 583.509 321.246 583.451 320.264 583.319C321.262 583.267 322.266 583.267 323.274 583.267C323.227 579.266 323.384 575.271 323.337 571.276C318.263 571.27 313.188 571.281 308.109 571.276C308.083 575.571 308.14 579.876 308.083 584.176Z" fill="#FEF9EF"/>
<path d="M247.558 625.686C250.274 621.969 255.191 620.934 259.545 621.144C265.108 620.907 271.38 622.527 274.695 627.337C276.786 630.244 276.25 633.982 276.192 637.336C275.493 642.887 270.598 646.914 265.486 648.428C265.497 658.716 265.486 669.004 265.492 679.292C265.613 682.489 262.734 685.322 259.582 685.37C256.257 685.606 253.016 682.704 253.147 679.319C253.147 669.031 253.137 658.743 253.153 648.454C248.688 646.63 245.777 642.025 245.488 637.283C245.305 633.367 245.026 628.977 247.558 625.686Z" fill="#FEF9EF"/>
<path d="M289.823 622.842C293.453 620.892 297.697 621.07 301.69 621.212C306.102 621.48 310.741 623.352 313.225 627.19C315.179 630.144 314.875 633.871 314.691 637.246C314.034 642.835 309.112 646.914 303.97 648.428C303.975 658.727 303.964 669.025 303.975 679.329C304.017 681.043 303.428 682.836 302.152 684.029C300.103 685.969 296.432 685.816 294.614 683.629C293.469 682.31 293.091 680.517 293.133 678.819C293.143 668.684 293.127 658.548 293.138 648.412C289.545 647.356 286.304 644.832 284.912 641.289C283.63 638.345 283.966 635.08 283.951 631.963C284.003 628.125 286.409 624.53 289.823 622.842Z" fill="#FEF9EF"/>
<path d="M326.158 625.507C328.858 621.938 333.622 620.944 337.867 621.144C342.799 620.892 348.357 622.195 351.367 626.438C353.662 629.524 353.358 633.577 353.205 637.215C352.927 641.973 350.033 646.63 345.531 648.449C345.531 658.743 345.531 669.036 345.536 679.329C345.583 681.842 343.545 683.898 341.355 684.812C336.811 686.968 330.665 682.899 331.605 677.736C331.621 667.963 331.605 658.191 331.611 648.423C327.245 647.329 324.298 643.192 324.088 638.792C323.894 634.339 323.237 629.277 326.158 625.507Z" fill="#FEF9EF"/>
<path d="M407.027 622.937C410.94 620.855 415.516 621.034 419.807 621.254C424.178 621.622 428.727 623.809 430.723 627.905C431.889 630.118 431.779 632.673 431.753 635.102C432.089 640.59 428.491 645.553 424.068 648.439C424.062 658.732 424.068 669.025 424.062 679.324C424.047 682.468 421.084 684.828 418.179 685.296C414.549 685.885 410.279 683.219 410.153 679.34C410.137 669.031 410.147 658.722 410.147 648.412C406.959 647.45 404.001 645.416 402.452 642.409C400.676 639.239 400.808 635.48 400.939 631.974C401.049 628.099 403.602 624.608 407.027 622.937Z" fill="#FEF9EF"/>
<path d="M442.842 626.196C445.631 622.138 450.889 620.897 455.549 621.144C460.959 620.897 467.079 622.495 470.236 627.247C472.153 630.018 471.838 633.514 471.77 636.71C471.381 642.025 467.294 646.436 462.535 648.439C462.551 658.721 462.54 669.01 462.546 679.292C462.535 682.678 459.163 685.17 456 685.364C452.386 685.601 448.389 682.673 448.62 678.814C448.63 668.684 448.609 658.559 448.63 648.433C444.181 646.615 441.308 642.025 440.998 637.304C440.898 633.561 440.488 629.398 442.842 626.196Z" fill="#FEF9EF"/>
<path d="M480.815 627.263C483.006 623.447 487.455 621.507 491.705 621.223C495.944 621.028 500.461 620.913 504.301 623.026C507.658 624.714 510.169 628.173 510.258 632C510.253 634.602 510.552 637.315 509.596 639.812C508.152 643.755 504.837 646.814 501.018 648.439C501.023 658.732 501.018 669.025 501.023 679.324C501.149 682.568 498.134 685.433 494.935 685.37C491.678 685.517 488.584 682.652 488.679 679.355C488.668 669.046 488.679 658.737 488.674 648.433C483.836 647.109 479.933 642.835 479.533 637.767C479.386 634.26 478.94 630.423 480.815 627.263Z" fill="#FEF9EF"/>
<path d="M560.534 622.968C564.069 620.965 568.256 621.06 572.185 621.186C576.776 621.365 581.64 623.247 584.204 627.242C586.168 630.223 585.769 633.956 585.627 637.341C584.913 642.861 580.064 646.914 574.958 648.402C574.953 658.706 574.964 669.015 574.953 679.319C574.948 681.132 574.302 683.041 572.873 684.229C571.292 685.543 568.933 685.706 567.111 684.849C565.083 683.829 564.027 681.484 564.116 679.287C564.127 669.004 564.111 658.716 564.127 648.433C560.697 647.403 557.545 645.106 556.074 641.773C554.593 638.729 554.829 635.259 554.887 631.979C554.961 628.23 557.219 624.693 560.534 622.968Z" fill="#FEF9EF"/>
<path d="M600.23 622.837C603.655 620.871 607.732 621.097 611.535 621.197C615.968 621.359 620.643 623.352 622.897 627.358C624.567 630.181 624.189 633.566 624.184 636.71C624.058 641.631 621.169 646.551 616.509 648.433C616.525 658.727 616.53 669.025 616.509 679.324C616.378 683.44 611.629 686.174 607.858 685.17C605.215 684.497 602.615 682.268 602.605 679.366C602.594 669.052 602.605 658.743 602.599 648.428C600.005 647.64 597.567 646.015 596.359 643.523C594.515 639.964 594.956 635.843 594.925 631.979C594.935 628.283 596.937 624.598 600.23 622.837Z" fill="#FEF9EF"/>
<path d="M639.134 622.879C642.748 620.881 647.008 621.07 651 621.212C655.565 621.486 660.398 623.457 662.851 627.51C664.637 630.402 664.311 633.956 664.159 637.21C663.513 642.793 658.622 646.883 653.49 648.412C653.448 658.884 653.553 669.367 653.438 679.839C653.417 682.82 650.89 685.706 647.764 685.37C644.623 685.401 642.48 682.263 642.601 679.34C642.559 669.031 642.601 658.722 642.585 648.418C639.108 647.372 635.945 644.979 634.506 641.583C633.093 638.603 633.398 635.233 633.398 632.037C633.44 628.22 635.73 624.582 639.134 622.879Z" fill="#FEF9EF"/>
<path d="M364.063 626.643C366.191 623.231 370.22 621.481 374.117 621.228C378.399 621.018 382.927 620.955 386.84 622.984C390.323 624.629 393.149 628.052 393.259 632.026C393.238 634.77 393.59 637.667 392.403 640.243C390.643 644.365 386.682 647.14 382.501 648.423C382.501 658.727 382.501 669.031 382.501 679.34C382.512 681.001 381.981 682.741 380.762 683.924C378.798 685.937 375.136 685.848 373.256 683.771C372.127 682.578 371.654 680.906 371.67 679.298C371.664 669.01 371.664 658.721 371.67 648.433C366.832 647.119 362.95 642.845 362.535 637.788C362.346 634.055 361.941 629.939 364.063 626.643Z" fill="#FEF9EF"/>
<path d="M517.512 627.31C519.209 623.688 523.133 621.596 527.01 621.27C531.553 620.976 536.37 620.934 540.536 623.052C543.998 624.672 546.981 627.931 547.202 631.895C547.26 634.734 547.533 637.741 546.288 640.395C544.481 644.417 540.599 647.14 536.475 648.412C536.47 658.716 536.496 669.031 536.465 679.34C536.512 682.667 533.424 685.564 530.114 685.37C526.905 685.401 524 682.536 524.068 679.313C524.073 669.025 524.047 658.732 524.084 648.444C519.43 646.551 516.525 641.647 516.399 636.721C516.404 633.566 516.036 630.223 517.512 627.31Z" fill="#FEF9EF"/>
<path d="M46.0551 683.382C56.5032 681.853 67.4188 683.487 76.9214 688.124C86.9598 692.945 95.3855 701.025 100.665 710.835C105.771 720.229 107.867 731.185 106.727 741.809C105.66 752.471 101.206 762.743 94.2246 770.855C87.6952 778.451 79.0279 784.276 69.3992 787.109C57.7587 790.711 44.889 790.138 33.6109 785.527C18.1935 779.318 6.1012 765.492 2.12997 749.327C-1.14261 736.473 0.543571 722.406 6.91014 710.761C14.7423 696.194 29.6397 685.622 46.0551 683.382ZM49.522 708.348C44.6158 709.079 39.9354 711.171 36.0798 714.289C28.5785 720.282 24.4813 730.344 25.8996 739.869C26.8188 747.256 30.9056 754.153 36.8467 758.616C44.059 764.152 54.0291 765.766 62.6282 762.838C71.4216 759.957 78.5341 752.444 80.8769 743.486C83.3142 734.66 81.087 724.719 75.0514 717.827C68.9002 710.588 58.9091 706.782 49.522 708.348Z" fill="#FEF9EF"/>
<path d="M839.555 685.238C854 683.225 869.229 687.336 880.491 696.677C891.564 705.683 898.866 719.262 899.943 733.535C901.272 747.892 896.36 762.675 886.758 773.42C881.053 779.865 873.762 784.907 865.709 787.94C850.192 793.839 831.912 792.004 817.991 782.893C805.421 774.866 796.544 761.313 794.28 746.551C791.779 731.574 796.118 715.629 805.878 703.995C814.251 693.839 826.501 686.968 839.555 685.238ZM843.468 710.167C835.279 711.208 827.699 716.087 823.339 723.1C819.231 729.571 817.928 737.767 819.94 745.179C821.973 753.144 827.736 760.015 835.158 763.505C843.526 767.506 853.9 766.975 861.78 762.06C868.766 757.812 873.757 750.405 874.928 742.288C876.362 733.44 873.158 724.02 866.66 717.858C860.645 711.897 851.841 709.058 843.468 710.167Z" fill="#FEF9EF"/>
<path d="M107.294 764.814C204.726 821.438 302.178 878.03 399.605 934.659C393.065 945.82 390.296 959.094 391.715 971.948C287.822 911.639 183.955 851.272 80.0942 790.905C91.5929 785.338 101.232 776.07 107.294 764.814Z" fill="#FEF9EF"/>
<path d="M504.658 934.906C601.202 879.397 697.767 823.914 794.337 768.452C800.82 779.676 810.958 788.676 822.824 793.854C723.249 851.13 623.622 908.322 524.031 965.571C520.128 967.779 516.273 970.071 512.343 972.237C513.909 959.399 511.12 946.099 504.658 934.906Z" fill="#FEF9EF"/>
<path d="M445.069 912.348C462.078 909.967 479.991 916.502 491.452 929.313C503.445 942.261 508.241 961.428 503.65 978.487C499.778 993.912 488.569 1007.26 474.065 1013.76C458.327 1021.04 439.033 1019.87 424.294 1010.72C411.009 1002.7 401.653 988.602 399.363 973.252C397.735 962.601 399.4 951.451 404.169 941.778C411.771 925.959 427.64 914.472 445.069 912.348ZM445.846 937.782C440.515 938.976 435.561 941.788 431.795 945.741C425.686 951.992 422.828 961.213 424.325 969.829C425.738 978.84 431.9 986.899 440.173 990.705C447.512 994.206 456.347 994.222 463.717 990.8C472.043 987.046 478.289 979.003 479.759 969.971C481.593 960.104 477.485 949.442 469.6 943.265C463.071 937.914 454.051 935.911 445.846 937.782Z" fill="#FEF9EF"/>
</svg>
